<svg xmlns="http://www.w3.org/2000/svg" width="18.266" height="18.238" viewBox="0 0 18.266 18.238">
  <g id="Group_747" data-name="Group 747" transform="translate(1 3)">
    <path id="Path_216" data-name="Path 216" d="M15.455,16c-.064,0,.061.02,0,0l-15-6c-.221-.076.019.233,0,0s-.206-.892,0-1l17-9a1.51,1.51,0,0,1,1,0c.179.128.032.782,0,1l-2,14c-.026.171.149-.09,0,0A13.476,13.476,0,0,1,15.455,16Zm-13-6,13,4,2-12Z" transform="translate(-1.359 -2.828)" fill="#fff"/>
    <path id="Path_217" data-name="Path 217" d="M9.4,18c-.061,0,.059.019,0,0-.24-.079-1-.748-1-1V12c0-.147.9.108,1,0l10-12a.817.817,0,0,1,1,0,.818.818,0,0,1,0,1l-10,11v4l1-3c.191-.258.74-.191,1,0s.191.74,0,1l-3,4C9.287,18.151,9.582,18,9.4,18Z" transform="translate(-3.304 -2.828)" fill="#fff"/>
  </g>
</svg>
