<svg id="time" xmlns="http://www.w3.org/2000/svg" width="19.385" height="20.133" viewBox="0 0 19.385 20.133">
  <g id="Path_255" data-name="Path 255" fill="none">
    <path d="M10.2,0c5.353,0,9.182,5.037,9.182,10.6s-3.829,9.537-9.182,9.537S0,16.156,0,10.6,4.85,0,10.2,0Z" stroke="none"/>
    <path d="M 10.20276737213135 1.000001907348633 C 7.92160701751709 1.000001907348633 5.593116760253906 2.059553146362305 3.814336776733398 3.906961441040039 C 2.025787353515625 5.764522552490234 0.9999961853027344 8.202752113342285 0.9999961853027344 10.5964527130127 C 0.9999961853027344 12.93692207336426 1.980907440185547 15.10653209686279 3.762026786804199 16.70561218261719 C 5.480466842651367 18.24842262268066 7.82802677154541 19.13326263427734 10.20276737213135 19.13326263427734 C 12.51747703552246 19.13326263427734 14.6050968170166 18.28904151916504 16.08105659484863 16.75613212585449 C 17.56694793701172 15.21291160583496 18.38525772094727 13.02536201477051 18.38525772094727 10.5964527130127 C 18.38525772094727 8.107142448425293 17.5278263092041 5.649282455444336 16.03281784057617 3.853092193603516 C 14.5014762878418 2.013252258300781 12.43099689483643 1.000001907348633 10.20276737213135 1.000001907348633 M 10.20276737213135 1.9073486328125e-06 C 15.55585670471191 1.9073486328125e-06 19.38525772094727 5.036811828613281 19.38525772094727 10.5964527130127 C 19.38525772094727 16.15610122680664 15.55585670471191 20.13326263427734 10.20276737213135 20.13326263427734 C 4.849677085876465 20.13326263427734 -3.814697265625e-06 16.15610122680664 -3.814697265625e-06 10.5964527130127 C -3.814697265625e-06 5.036811828613281 4.849677085876465 1.9073486328125e-06 10.20276737213135 1.9073486328125e-06 Z" stroke="none" fill="#fff"/>
  </g>
  <line id="Line_24" data-name="Line 24" y2="7" transform="translate(9.885 3.633)" fill="none" stroke="#fff" stroke-linecap="round" stroke-width="1"/>
  <line id="Line_25" data-name="Line 25" x1="4" y1="5" transform="translate(9.885 10.633)" fill="none" stroke="#fff" stroke-linecap="round" stroke-width="1"/>
</svg>
